<?xml version="1.0" encoding="UTF-8"?>
<svg id="Capa_1" data-name="Capa 1" xmlns="http://www.w3.org/2000/svg" viewBox="0 0 800 753">
  <defs>
    <style>
      .cls-1 {
        fill: #fff;
      }
    </style>
  </defs>
  <path class="cls-1" d="M629.54,310.62c-24.95-31.1-61.45-35.41-76.54-37.2-44.88-5.31-82.33,14.49-106,27-12.64,6.68-22.48,13.3-29,18,.05-54.01.09-108.01.14-162.02-106.98,48.02-178.88,97.3-223.21,131.93-14.57,11.38-30.06,27.32-38.96,51.07-11.63,31.03-10.13,74.76,16.71,108.44,31.38,39.39,83.18,46.93,116.57,38.19,16.35-4.28,32.39-12.49,61.49-30.84,14.31-9.02,27-17.23,37.79-24.31l-.52,166.53c52.22-26.77,137.66-73.88,211.04-132.75,17.07-13.69,40.85-33.92,48.71-67.17,1.16-4.89,11.35-50.04-18.21-86.88h-.01Z"/>
</svg>